# AST/ASF file generated using VICON BodyLanguage
# -----------------------------------------------
:version 1.10
:name VICON
:units
  mass 1.0
  length 0.45
  angle deg
:documentation
   .ast/.asf automatically generated from VICON data using
   VICON BodyBuilder and BodyLanguage model FoxedUp or BRILLIANT.MOD
:root
   order TX TY TZ RX RY RZ
   axis XYZ
   position 0 0 0  
   orientation 0 0 0 
:bonedata
  begin
     id 1 
     name lhipjoint
     direction 0.589753 -0.68606 0.426044 
     length 2.54082 
     axis 0 0 0  XYZ
  end
  begin
     id 2 
     name lfemur
     direction 0.34202 -0.939693 0  
     length 7.04539  
     axis 0 0 20  XYZ
    dof rx ry rz
    limits (-160.0 20.0)
           (-70.0 70.0)
           (-60.0 70.0)
  end
  begin
     id 3 
     name ltibia
     direction 0.34202 -0.939693 0   
     length 7.83772   
     axis 0 0 20   XYZ
    dof rx
    limits (-10.0 170.0)
  end
  begin
     id 4 
     name lfoot
     direction 0.0596604 -0.163915 0.984669   
     length 2.39542   
     axis -90 7.62852e-016 20   XYZ
    dof rx rz
    limits (-45.0 90.0)
           (-70.0 20.0)
  end
  begin
     id 5 
     name ltoes
     direction 1.53514e-011 -4.21954e-011 1   
     length 1.2047   
     axis -90 7.62852e-016 20   XYZ
    dof rx
    limits (-90.0 20.0)
  end
  begin
     id 6 
     name rhipjoint
     direction -0.580585 -0.69168 0.429534   
     length 2.52018  
     axis 0 0 0  XYZ 
  end
  begin
     id 7 
     name rfemur
     direction -0.34202 -0.939693 0   
     length 7.0101   
     axis 0 0 -20   XYZ
    dof rx ry rz
    limits (-160.0 20.0)
           (-70.0 70.0)
           (-70.0 60.0)
  end
  begin
     id 8 
     name rtibia
     direction -0.34202 -0.939693 0   
     length 7.70628   
     axis 0 0 -20   XYZ
    dof rx
    limits (-10.0 170.0)
 end
 begin
     id 9 
     name rfoot
     direction -0.0696237 -0.19129 0.979061   
     length 2.52466  
     axis -90 -7.62852e-016 -20   XYZ
    dof rx rz
    limits (-45.0 90.0)
           (-20.0 70.0)
  end
  begin
     id 10 
     name rtoes
     direction -1.53519e-011 -4.21793e-011 1   
     length 1.266   
     axis -90 -7.62852e-016 -20   XYZ
    dof rx
    limits (-90.0 20.0)
  end
  begin
     id 11 
     name lowerback
     direction 0.00381965 0.995707 -0.0924856   
     length 2.20825   
     axis 0 0 0   XYZ
    dof rx ry rz
    limits (-20.0 45.0)
           (-30.0 30.0)
           (-30.0 30.0)
  end
  begin
     id 12 
     name upperback
     direction -0.0139043 0.999634 -0.0231929   
     length 2.21517   
     axis 0 0 0   XYZ
    dof rx ry rz
    limits (-20.0 45.0)
           (-30.0 30.0)
           (-30.0 30.0)
  end
  begin
     id 13 
     name thorax
     direction -0.0143933 0.999691 0.0202892   
     length 2.22911   
     axis 0 0 0   XYZ
    dof rx ry rz
    limits (-20.0 45.0)
           (-30.0 30.0)
           (-30.0 30.0)
  end
  begin
     id 14 
     name lowerneck
     direction -0.0251153 0.981819 0.188153   
     length 1.61782   
     axis 0 0 0   XYZ
    dof rx ry rz
    limits (-20.0 45.0)
           (-30.0 30.0)
           (-30.0 30.0)
  end
  begin
     id 15 
     name upperneck
     direction 0.0563891 0.969357 -0.239095   
     length 1.64526   
     axis 0 0 0   XYZ
    dof rx ry rz
    limits (-20.0 45.0)
           (-30.0 30.0)
           (-30.0 30.0)
  end
  begin
     id 16
     name head
     direction 0.0208328 0.99459 -0.101773  
     length 1.67436  
     axis 0 0 0   XYZ
    dof rx ry rz
    limits (-20.0 45.0)
           (-30.0 30.0)
           (-30.0 30.0)
  end
  begin
     id 17 
     name lclavicle
     direction 0.917689 0.397224 0.00772059  
     length 3.31102  
     axis 0 0 0   XYZ
    dof ry rz
    limits (-20.0 10.0)
           (0.0 20.0)
  end
  begin
     id 18 
     name lhumerus
     direction 1 -4.4896e-011 2.32308e-027   
     length 5.25537   
     axis 180 -30 -90   XYZ
    dof rx ry rz
    limits (-60.0 90.0)
           (-90.0 90.0)
           (-90.0 90.0)
  end
  begin
     id 19
     name lradius
     direction 1 -4.49005e-011 -2.04271e-027   
     length 3.38855   
     axis 180 -30 -90   XYZ
    dof rx
    limits (-10.0 170.0)
  end
  begin
     id 20
     name lwrist
     direction 1 -4.48892e-011 2.56952e-028   
     length 1.69428   
     axis -5.12785e-016 90 90   XYZ
    dof ry
    limits (-180.0 0.0)
 end
  begin
     id 21 
     name lhand
     direction 1 -4.48966e-011 5.13905e-028   
     length 0.614516   
     axis -3.27915e-016 90 90   XYZ
    dof rx rz
    limits (-90.0 90.0)
           (-45.0 45.0)
  end
  begin
     id 22 
     name lfingers
     direction 1 -4.48979e-011 1.02781e-027   
     length 0.495439   
     axis -6.5583e-016 90 90   XYZ
    dof rx
    limits (0.0 90.0)
  end
  begin
     id 23
     name lthumb
     direction 0.707107 -6.35001e-011 0.707107   
     length 0.711354   
     axis -90 45 2.85299e-015   XYZ
    dof rx rz
    limits (-45.0 45.0)
           (-45.0 45.0)
  end
  begin
     id 24 
     name rclavicle
     direction -0.938556 0.342765 -0.0403177   
     length 3.27019  
     axis 0 0 0   XYZ 
    dof ry rz
    limits (-10.0 20.0)
           (-20.0 0.0)
  end
  begin
     id 25 
     name rhumerus
     direction -1 -4.48966e-011 2.52291e-027  
     length 5.38183   
     axis 180 30 90   XYZ
    dof rx ry rz
    limits (-90.0 60.0)
           (-90.0 90.0)
           (-90.0 90.0)
  end
  begin
     id 26 
     name rradius
     direction -1 -4.4896e-011 1.5797e-027   
     length 3.16988   
     axis 180 30 90   XYZ
    dof rx
    limits (-10.0 170.0)
  end
  begin
     id 27 
     name rwrist
     direction -1 -4.48947e-011 2.56952e-028   
     length 1.58494   
     axis -5.12785e-016 -90 -90   XYZ
    dof ry
    limits (-180.0 0.0)
  end
  begin
     id 28
     name rhand
     direction -1 -4.49098e-011 5.13905e-028   
     length 0.637679   
     axis -3.27915e-016 -90 -90   XYZ
    dof rx rz
    limits (-90.0 90.0)
           (-45.0 45.0)
  end
  begin
     id 29
     name rfingers
     direction -1 -4.49026e-011 1.02781e-027   
     length 0.514113   
     axis -6.5583e-016 -90 -90   XYZ
    dof rx
    limits (0.0 90.0)
  end
  begin
     id 30
     name rthumb
     direction -0.707107 -6.3491e-011 0.707107   
     length 0.738167   
     axis -90 -45 -2.85299e-015   XYZ
    dof rx rz
    limits (-45.0 45.0)
           (-45.0 45.0)
  end
:hierarchy
  begin
    root lhipjoint rhipjoint lowerback
    lhipjoint lfemur
    lfemur ltibia
    ltibia lfoot
    lfoot ltoes
    rhipjoint rfemur
    rfemur rtibia
    rtibia rfoot
    rfoot rtoes
    lowerback upperback
    upperback thorax
    thorax lowerneck lclavicle rclavicle
    lowerneck upperneck
    upperneck head
    lclavicle lhumerus
    lhumerus lradius
    lradius lwrist
    lwrist lhand lthumb
    lhand lfingers
    rclavicle rhumerus
    rhumerus rradius
    rradius rwrist
    rwrist rhand rthumb
    rhand rfingers
  end

#!OML:ASF H:\Swim\Project 1\Capture day 1\Session 1\swimmer.ASF
:FULLY-SPECIFIED
:DEGREES
4211
root 3.05682 17.3074 -23.0049 62.07 -4.18669 16.1992
lowerback -0.982736 -2.45261 -9.4943
upperback -9.18409 -4.02367 -3.89258
thorax -8.9087 -1.43942 1.38674
lowerneck -24.9096 -7.90314 -13.3554
upperneck 32.9047 -8.97081 8.28478
head 17.3325 -4.13599 4.01537
rclavicle 1.66979e-014 -2.06736e-014
rhumerus 43.2955 10.0262 -58.8005
rradius 64.7138
rwrist -251.024
rhand -9.3702 1.65747
rfingers 7.12502
rthumb 16.5901 -27.6534
lclavicle 1.66979e-014 -2.06736e-014
lhumerus 68.8343 -5.18014 21.6345
lradius 64.3429
lwrist 85.8691
lhand -35.5467 22.2992
lfingers 7.12502
lthumb -8.6724 52.101
rfemur -3.73583 -34.9232 -10.38
rtibia 85.6397
rfoot -5.15969 -0.0835252
rtoes 17.6069
lfemur -13.286 5.47802 -18.6689
ltibia 75.8547
lfoot 18.7809 2.90439
ltoes -0.483821
4212
root 3.07271 17.3226 -22.9776 61.6771 -4.26105 16.1092
lowerback -0.882554 -2.08564 -9.22381
upperback -8.83592 -3.53097 -4.47856
thorax -8.67083 -1.25564 0.592739
lowerneck -25.0623 -8.21219 -12.7106
upperneck 33.3898 -9.71496 8.22023
head 17.6908 -4.3559 3.71569
rclavicle -4.01545e-014 2.5842e-014
rhumerus 44.3449 8.30259 -59.2068
rradius 61.8799
rwrist -250.41
rhand -9.9505 2.47081
rfingers 7.12502
rthumb 16.0313 -26.8859
lclavicle -4.01545e-014 2.5842e-014
lhumerus 70.841 -5.01251 20.0321
lradius 62.2682
lwrist 85.7753
lhand -34.7596 22.6174
lfingers 7.12502
lthumb -7.91273 52.4493
rfemur -3.60849 -34.8442 -10.8923
rtibia 86.7655
rfoot -5.0102 0.213326
rtoes 17.9406
lfemur -13.1745 5.50682 -18.509
ltibia 77.1081
lfoot 19.2374 3.19952
ltoes 1.02363
4213
root 3.09128 17.3355 -22.9432 61.3507 -4.26153 16.0509
lowerback -0.825038 -1.8676 -9.00729
upperback -8.52536 -3.22362 -4.81228
thorax -8.40791 -1.14749 0.106238
lowerneck -25.1838 -8.35331 -12.3824
upperneck 33.7446 -10.0583 8.14884
head 17.9338 -4.45545 3.55526
rclavicle 2.3059e-014 2.42517e-014
rhumerus 45.6476 7.11859 -59.2275
rradius 59.149
rwrist -250.03
rhand -10.1434 2.58315
rfingers 7.12502
rthumb 15.8456 -26.7884
lclavicle 2.3059e-014 2.42517e-014
lhumerus 72.1591 -4.71549 18.6041
lradius 60.3894
lwrist 85.6873
lhand -33.8466 22.2264
lfingers 7.12502
lthumb -7.03149 52.0896
rfemur -3.47703 -34.8666 -11.3643
rtibia 87.7948
rfoot -4.77929 0.499999
rtoes 17.923
lfemur -13.1846 5.51911 -18.3312
ltibia 78.3405
lfoot 19.5661 2.8698
ltoes 0.0297515
4214
root 3.10822 17.3481 -22.9134 61.0221 -4.29426 15.963
lowerback -0.686579 -1.7775 -8.99978
upperback -8.37465 -3.10804 -4.87265
thorax -8.3325 -1.09793 0.0368517
lowerneck -25.0074 -8.46564 -12.2727
upperneck 34.1532 -10.3092 8.08557
head 18.1397 -4.55379 3.46466
rclavicle -9.14409e-015 2.38542e-015
rhumerus 47.3493 6.47702 -58.4528
rradius 56.344
rwrist -250.504
rhand -10.3769 2.60205
rfingers 7.12502
rthumb 15.6206 -26.7873
lclavicle -9.14409e-015 2.38542e-015
lhumerus 72.7638 -4.43866 17.0748
lradius 58.7376
lwrist 85.3339
lhand -32.9858 21.7023
lfingers 7.12502
lthumb -6.20046 51.5915
rfemur -3.36406 -34.7787 -11.7854
rtibia 88.7444
rfoot -4.55997 0.79618
rtoes 17.902
lfemur -13.1259 5.5165 -18.1469
ltibia 79.4708
lfoot 20.1733 3.16173
ltoes 1.0166
4215
root 3.12418 17.3577 -22.8751 60.72 -4.35481 15.8359
lowerback -0.543303 -1.68005 -9.00316
upperback -8.26931 -2.98837 -4.93421
thorax -8.31069 -1.04289 -0.0287085
lowerneck -25.0953 -8.43446 -11.9057
upperneck 34.9145 -10.3103 7.6739
head 18.52 -4.56115 3.2335
rclavicle -2.5842e-014 4.81059e-014
rhumerus 48.9792 5.85886 -57.6657
rradius 53.6156
rwrist -251.018
rhand -10.6738 2.87318
rfingers 7.12502
rthumb 15.3347 -26.5382
lclavicle -2.5842e-014 4.81059e-014
lhumerus 73.2513 -4.17858 15.546
lradius 57.1397
lwrist 84.6291
lhand -32.0106 21.7501
lfingers 7.12502
lthumb -5.25895 51.6648
rfemur -3.2963 -34.6394 -12.1345
rtibia 89.577
rfoot -4.1068 1.05356
rtoes 17.4941
lfemur -13.1127 5.57938 -17.9708
ltibia 80.5443
lfoot 20.7636 3.18775
ltoes 1.40862
4216
root 3.1406 17.3664 -22.8373 60.4751 -4.38371 15.7474
lowerback -0.393249 -1.6789 -9.00463
upperback -8.16785 -2.99583 -4.90472
thorax -8.28334 -1.04816 0.00920064
lowerneck -25.3305 -8.38389 -11.8005
upperneck 35.4975 -10.2117 7.46334
head 18.8719 -4.53342 3.15565
rclavicle -1.55052e-014 -8.94531e-014
rhumerus 50.2449 5.65665 -57.3413
rradius 51.2977
rwrist -250.792
rhand -10.9868 2.7372
rfingers 7.12502
rthumb 15.0332 -26.697
lclavicle -1.55052e-014 -8.94531e-014
lhumerus 73.3532 -3.77006 13.8884
lradius 55.7283
lwrist 83.901
lhand -30.638 21.6182
lfingers 7.12502
lthumb -3.93357 51.5616
rfemur -3.26473 -34.5308 -12.4442
rtibia 90.3151
rfoot -3.9349 1.3561
rtoes 17.3355
lfemur -13.159 5.55208 -17.7977
ltibia 81.5201
lfoot 21.5518 3.31945
ltoes 1.33427
4217
root 3.15681 17.3746 -22.8043 60.2638 -4.42865 15.6903
lowerback -0.288509 -1.70673 -9.07666
upperback -7.98256 -3.02803 -4.83487
thorax -8.12989 -1.06523 0.129526
lowerneck -25.6151 -8.38494 -11.7544
upperneck 35.7997 -10.1785 7.35505
head 19.1033 -4.5231 3.1086
rclavicle 2.06736e-014 1.94809e-014
rhumerus 51.7469 5.39497 -57.012
rradius 48.9784
rwrist -250.236
rhand -11.519 2.8188
rfingers 7.12502
rthumb 14.5204 -26.6531
lclavicle 2.06736e-014 1.94809e-014
lhumerus 73.3023 -3.21357 12.3443
lradius 54.5088
lwrist 83.2058
lhand -29.5573 21.8416
lfingers 7.12502
lthumb -2.88989 51.8018
rfemur -3.27864 -34.371 -12.7137
rtibia 90.9459
rfoot -3.48713 1.60732
rtoes 17.2411
lfemur -13.2578 5.47616 -17.6693
ltibia 82.4242
lfoot 22.439 2.9404
ltoes 0.674684
4218
root 3.17236 17.3778 -22.7642 60.1775 -4.45653 15.5749
lowerback -0.167596 -1.72499 -9.09991
upperback -8.02706 -3.06949 -4.74161
thorax -8.24116 -1.07583 0.246931
lowerneck -25.192 -8.35517 -12.0016
upperneck 35.7165 -10.1614 7.58441
head 18.9864 -4.53041 3.27275
rclavicle -2.50469e-014 -2.38542e-014
rhumerus 53.1111 5.25805 -56.2905
rradius 46.6359
rwrist -249.6
rhand -11.8403 2.9395
rfingers 7.12502
rthumb 14.2109 -26.5544
lclavicle -2.50469e-014 -2.38542e-014
lhumerus 73.1054 -3.12175 11.2891
lradius 53.289
lwrist 82.748
lhand -28.2685 22.4819
lfingers 7.12502
lthumb -1.64522 52.4553
rfemur -3.41359 -34.2434 -12.818
rtibia 91.4552
rfoot -3.40672 1.96519
rtoes 16.9716
lfemur -13.4486 5.40297 -17.5013
ltibia 83.2068
lfoot 23.3997 3.28596
ltoes 1.15027
4219
root 3.18852 17.3813 -22.7298 60.0725 -4.45445 15.4698
lowerback -0.140158 -1.78745 -9.09335
upperback -7.89301 -3.13631 -4.60993
thorax -8.09477 -1.11256 0.389235
lowerneck -25.3087 -8.32268 -12.169
upperneck 35.7014 -10.05 7.6622
head 19.0124 -4.49775 3.36433
rclavicle 1.90833e-014 5.12864e-014
rhumerus 54.4511 5.10814 -56.2634
rradius 44.492
rwrist -247.698
rhand -12.3054 2.99078
rfingers 7.12502
rthumb 13.7627 -26.534
lclavicle 1.90833e-014 5.12864e-014
lhumerus 72.7586 -2.54304 9.75509
lradius 52.5346
lwrist 83.5045
lhand -28.0811 22.3017
lfingers 7.12502
lthumb -1.46423 52.2764
rfemur -3.5717 -34.0416 -12.8402
rtibia 91.8642
rfoot -3.24549 2.37242
rtoes 16.4159
lfemur -13.5891 5.23871 -17.3197
ltibia 83.8694
lfoot 24.2656 3.72696
ltoes 3.02605
4220
root 3.2035 17.3822 -22.691 59.986 -4.54311 15.3829
lowerback -0.072749 -1.81074 -9.18428
upperback -7.82263 -3.16856 -4.52101
thorax -8.04533 -1.12218 0.537614
lowerneck -25.2669 -8.3437 -12.427
upperneck 35.6289 -10.0552 7.88217
head 19.0034 -4.50647 3.51239
rclavicle -1.35174e-014 2.54444e-014
rhumerus 55.972 4.81524 -55.3981
rradius 42.3236
rwrist -245.985
rhand -12.6704 3.36905
rfingers 7.12502
rthumb 13.4109 -26.1793
lclavicle -1.35174e-014 2.54444e-014
lhumerus 72.3963 -2.15005 8.3323
lradius 51.9225
lwrist 84.0982
lhand -27.8326 22.4293
lfingers 7.12502
lthumb -1.22425 52.4056
rfemur -3.73104 -33.8246 -12.936
rtibia 92.1328
rfoot -3.00173 2.69213
rtoes 15.5052
lfemur -13.7545 5.11134 -17.2601
ltibia 84.4148
lfoot 25.2955 3.66948
ltoes 3.51036
4221
root 3.22058 17.3816 -22.6585 60.0096 -4.55797 15.3575
lowerback -0.0800781 -1.90097 -9.20838
upperback -7.76865 -3.27714 -4.37824
thorax -7.96249 -1.1737 0.708618
lowerneck -25.4009 -8.31546 -12.626
upperneck 35.5666 -9.89721 7.88813
head 18.9935 -4.46927 3.58378
rclavicle -1.78906e-014 -3.45885e-014
rhumerus 57.5081 4.60137 -54.7909
rradius 40.2584
rwrist -243.39
rhand -13.286 3.86312
rfingers 7.12502
rthumb 12.8175 -25.7234
lclavicle -1.78906e-014 -3.45885e-014
lhumerus 71.8878 -1.76364 6.97609
lradius 51.347
lwrist 84.5109
lhand -27.6185 22.4888
lfingers 7.12502
lthumb -1.01748 52.4661
rfemur -3.95731 -33.6571 -12.9091
rtibia 92.2801
rfoot -2.84852 3.05691
rtoes 14.8516
lfemur -14.0458 4.82955 -17.212
ltibia 84.8524
lfoot 26.3729 3.49668
ltoes 3.15268
4222
root 3.23772 17.3804 -22.6239 59.9762 -4.62177 15.3227
lowerback -0.0360308 -1.959 -9.22087
upperback -7.67376 -3.34857 -4.29725
thorax -7.87157 -1.21105 0.807162
lowerneck -25.612 -8.29115 -12.735
upperneck 35.4925 -9.76726 7.87416
head 18.9911 -4.43087 3.62112
rclavicle -2.06736e-014 -1.59028e-015
rhumerus 58.7219 4.36593 -54.2178
rradius 38.582
rwrist -240.479
rhand -13.3024 3.80052
rfingers 7.12502
rthumb 12.8017 -25.787
lclavicle -2.06736e-014 -1.59028e-015
lhumerus 71.3685 -1.34009 5.43521
lradius 50.9158
lwrist 84.6463
lhand -27.4085 22.6081
lfingers 7.12502
lthumb -0.81465 52.5863
rfemur -4.11988 -33.3831 -12.8908
rtibia 92.2714
rfoot -2.44559 3.25953
rtoes 13.9943
lfemur -14.2608 4.53766 -17.2247
ltibia 85.1523
lfoot 27.0963 3.6578
ltoes 4.51747
4223
root 3.25281 17.3751 -22.5859 60.0451 -4.67235 15.2015
lowerback -0.0428175 -2.00311 -9.21998
upperback -7.63261 -3.39544 -4.16461
thorax -7.80903 -1.23306 0.949553
lowerneck -25.8918 -8.25881 -12.8269
upperneck 35.4519 -9.58735 7.77174
head 19.0081 -4.38173 3.62513
rclavicle 2.5842e-014 1.90833e-014
rhumerus 60.1235 4.21068 -53.1173
rradius 36.9444
rwrist -237.873
rhand -13.4401 4.34185
rfingers 7.12502
rthumb 12.6689 -25.2539
lclavicle 2.5842e-014 1.90833e-014
lhumerus 70.8202 -1.01872 3.88133
lradius 50.4548
lwrist 84.2107
lhand -27.012 22.7475
lfingers 7.12502
lthumb -0.431657 52.7268
rfemur -4.43481 -33.125 -12.6921
rtibia 92.1536
rfoot -2.48157 3.61727
rtoes 13.3795
lfemur -14.5225 4.33373 -17.1846
ltibia 85.3172
lfoot 28.0032 3.2177
ltoes 4.09854
